HIERARCHY
ROOT root
{
	OFFSET	0	13.1	24.9
	CHANNELS 6  Xposition Yposition Zposition Xrotation Yrotation Zrotation
	JOINT spine_1
	{
		OFFSET	0	9.99999	0
		CHANNELS 3  Xrotation Yrotation Zrotation
		JOINT spine_2
		{
			OFFSET	0	112	-10
			CHANNELS 3  Xrotation Yrotation Zrotation
			JOINT spine_3
			{
				OFFSET	0	206.5	19.3
				CHANNELS 3  Xrotation Yrotation Zrotation
				JOINT spine_4
				{
					OFFSET	0	110.4	14.6
					CHANNELS 3  Xrotation Yrotation Zrotation
					JOINT neck_1
					{
						OFFSET	0	71.8	-50.3
						CHANNELS 3  Xrotation Yrotation Zrotation
						JOINT neck_2
						{
							OFFSET	0	86.2	-25.8
							CHANNELS 3  Xrotation Yrotation Zrotation
							JOINT head_ee
							{
								OFFSET	0	179.8	-8.7
								CHANNELS 3  Xrotation Yrotation Zrotation
								End Site
								{
									OFFSET	1	0	0
								}
							}
						}
					}
					JOINT left_clavicle
					{
						OFFSET	-43.2	22.4	-70.8
						CHANNELS 3  Xrotation Yrotation Zrotation
						JOINT left_shoulder
						{
							OFFSET	-93.9	-5.79999	48.7
							CHANNELS 3  Xrotation Yrotation Zrotation
							JOINT left_elbow
							{
								OFFSET	-291.4	-30.8	15.2
								CHANNELS 3  Xrotation Yrotation Zrotation
								JOINT left_lowarm_twist
								{
									OFFSET	-110.7	-3.89999	13.6
									CHANNELS 3  Xrotation Yrotation Zrotation
									JOINT left_hand
									{
										OFFSET	-110.7	-3.89999	13.6
										CHANNELS 3  Xrotation Yrotation Zrotation
										JOINT left_ee
										{
											OFFSET	-80.8	-5.10001	12.1
											CHANNELS 3  Xrotation Yrotation Zrotation
											End Site
											{
												OFFSET	1	0	0
											}
										}
									}
								}
							}
						}
					}
					JOINT right_clavicle
					{
						OFFSET	43.2	22.4	-70.8
						CHANNELS 3  Xrotation Yrotation Zrotation
						JOINT right_shoulder
						{
							OFFSET	93.9	-5.79999	48.7
							CHANNELS 3  Xrotation Yrotation Zrotation
							JOINT right_elbow
							{
								OFFSET	291.4	-30.8	15.2
								CHANNELS 3  Xrotation Yrotation Zrotation
								JOINT right_lowarm_twist
								{
									OFFSET	110.7	-3.89999	13.6
									CHANNELS 3  Xrotation Yrotation Zrotation
									JOINT right_hand
									{
										OFFSET	110.7	-3.89999	13.6
										CHANNELS 3  Xrotation Yrotation Zrotation
										JOINT right_ee
										{
											OFFSET	80.8	-5.10001	12.1
											CHANNELS 3  Xrotation Yrotation Zrotation
											End Site
											{
												OFFSET	1	0	0
											}
										}
									}
								}
							}
						}
					}
				}
			}
		}
	}
	JOINT left_hip
	{
		OFFSET	-82.8	-127.5	0.300001
		CHANNELS 3  Xrotation Yrotation Zrotation
		JOINT left_knee
		{
			OFFSET	-28.2	-396.7	2.2
			CHANNELS 3  Xrotation Yrotation Zrotation
			JOINT left_ankle
			{
				OFFSET	-11.7	-411.3	35.4
				CHANNELS 3  Xrotation Yrotation Zrotation
				JOINT left_toes
				{
					OFFSET	0	-60	-88.6
					CHANNELS 3  Xrotation Yrotation Zrotation
					JOINT left_foot_ee
					{
						OFFSET	-22.5	-16.5	-42.2
						CHANNELS 3  Xrotation Yrotation Zrotation
						End Site
						{
							OFFSET	1	0	0
						}
					}
				}
			}
		}
	}
	JOINT right_hip
	{
		OFFSET	82.8	-127.5	0.300001
		CHANNELS 3  Xrotation Yrotation Zrotation
		JOINT right_knee
		{
			OFFSET	28.2	-396.7	2.2
			CHANNELS 3  Xrotation Yrotation Zrotation
			JOINT right_ankle
			{
				OFFSET	11.7	-411.3	35.4
				CHANNELS 3  Xrotation Yrotation Zrotation
				JOINT right_toes
				{
					OFFSET	0	-60	-88.6
					CHANNELS 3  Xrotation Yrotation Zrotation
					JOINT right_foot_ee
					{
						OFFSET	22.5	-16.5	-42.2
						CHANNELS 3  Xrotation Yrotation Zrotation
						End Site
						{
							OFFSET	1	0	0
						}
					}
				}
			}
		}
	}
}
MOTION
Frames: 5
Frame Time: 0.02
1523.44 679.853 -1544.35 177.327 85.8288 -173.604 0.313461 -0.0474294 -1.74861 0.31516 0.0639182 -1.74809 0.313779 0.420737 -1.69792 0.309786 0.147345 -1.74304 -7.00345 10.4073 4.31943 -6.96464 16.2368 6.42037 -0.0 0.0 -0.0 3.43863 23.8982 7.44215 -25.164 -39.1228 57.4668 0.699987 -19.1242 0.117919 -12.9216 -0.630081 1.52379 2.01497 2.9123 14.7336 -0.0 0.0 -0.0 11.9477 4.55319 -24.0295 9.76376 -26.1093 -62.1402 1.55792 37.6564 -0.531243 -34.9706 2.43285 -3.67655 9.65987 23.7079 -63.3508 0.0 0.0 0.0 17.9881 -7.24164 -8.20932 -32.3574 -0.0534257 4.90005 31.4923 6.35921 -4.04558 -33.4601 0.0 0.0 -0.0 0.0 -0.0 -10.2156 16.5703 -12.3317 3.72551 0.171247 0.545873 35.9889 -19.9357 4.63974 -31.1955 0.0 0.0 0.0 0.0 0.0 
1511.85 678.769 -1546.04 167.822 86.7984 -164.431 0.356035 0.0450389 -1.52949 0.357325 0.142261 -1.52352 0.353899 0.450382 -1.46238 0.350978 0.213802 -1.51514 -7.52201 10.3727 4.18933 -7.49914 16.3467 6.34829 -0.0 0.0 -0.0 3.60877 23.9685 7.67586 -26.7442 -37.1893 56.869 0.539542 -14.964 0.0708603 -12.022 -0.575201 1.4226 1.94516 4.94789 15.032 -0.0 0.0 -0.0 11.9763 4.15021 -24.074 10.2472 -22.8129 -63.8608 1.66996 39.596 -0.601193 -34.6029 2.39632 -3.64671 9.50736 23.4129 -61.9043 0.0 0.0 0.0 19.629 -8.44652 -7.56189 -31.3736 -0.0109932 4.75504 27.6971 5.62785 -3.63725 -32.0907 0.0 0.0 -0.0 0.0 -0.0 -11.1311 16.4644 -12.0632 3.25992 0.147905 0.478265 35.7096 -19.2808 4.59843 -29.0503 0.0 0.0 0.0 0.0 0.0 
1506.12 678.009 -1546.66 173.87 87.6933 -170.689 0.468786 0.0659274 -1.41449 0.469886 0.155792 -1.40743 0.466319 0.437269 -1.34683 0.463854 0.219096 -1.39897 -7.87035 10.0549 5.55661 -7.81672 14.8349 7.66779 -0.0 0.0 -0.0 3.40653 23.3932 7.39352 -27.7388 -35.126 56.9694 0.504287 -14.0261 0.0620358 -10.9737 -0.513269 1.30363 1.66309 8.54663 14.4572 -0.0 0.0 -0.0 11.9084 3.86891 -23.9111 11.1129 -21.4482 -65.72 1.9744 44.3596 -0.804992 -34.8896 2.42479 -3.66999 9.64831 23.443 -63.6208 0.0 0.0 0.0 24.023 -8.98346 -7.44104 -27.937 0.11754 4.24337 23.5674 5.29601 -3.16404 -29.7844 0.0 0.0 -0.0 0.0 -0.0 -12.4946 15.7406 -11.6586 5.15194 0.246176 0.751816 36.7667 -21.3863 4.74991 -28.0409 0.0 0.0 0.0 0.0 0.0 
1497.28 676.637 -1546.02 -164.488 87.5873 167.24 0.750342 -0.10245 -1.30668 0.751292 -0.0191021 -1.31055 0.751983 0.23992 -1.28855 0.749667 0.0334246 -1.31026 -8.20348 10.7001 5.84457 -8.15273 15.8992 8.1303 -0.0 0.0 -0.0 2.55929 23.8078 6.23603 -27.9707 -33.9976 58.0938 0.455357 -12.7117 0.0507215 -10.2462 -0.471576 1.22042 1.72041 10.1602 15.4203 -0.0 0.0 -0.0 11.5653 4.24942 -23.1775 11.7943 -18.8356 -67.9391 2.1639 46.9823 -0.940583 -36.4291 2.57965 -3.79258 9.60295 22.9352 -63.8369 0.0 0.0 0.0 26.0354 -10.3123 -7.3591 -26.4683 0.163056 4.02257 20.2031 -0.229575 -2.77848 -28.5828 0.0 0.0 -0.0 0.0 -0.0 -12.0228 16.2254 -10.7829 5.6176 0.271747 0.818644 35.3278 -21.0112 4.59559 -27.6109 0.0 0.0 0.0 0.0 0.0 
1487.37 668.967 -1547.67 -128.718 88.1774 130.867 1.07123 0.0338215 -1.06031 1.07185 0.101219 -1.05601 1.07005 0.302005 -1.01696 1.06863 0.137615 -1.05189 -8.39229 10.9399 5.99292 -8.34333 16.2793 8.35215 -0.0 0.0 -0.0 1.97667 23.4375 5.42148 -28.5954 -33.6825 59.0343 0.367653 -10.3221 0.0332071 -10.974 -0.513284 1.30366 1.77208 12.9878 16.7435 -0.0 0.0 -0.0 11.3701 4.37908 -22.7573 12.4942 -15.4701 -69.9571 2.30521 48.7843 -1.04542 -33.06 2.24513 -3.519 9.80145 23.544 -65.4697 0.0 0.0 0.0 29.4851 -11.3237 -6.42077 -25.4625 0.190954 3.87073 15.0007 0.419053 -2.10892 -25.4477 0.0 0.0 -0.0 0.0 -0.0 -13.0517 16.2437 -10.3345 6.31862 0.311268 0.918859 39.6903 -21.6991 5.04168 -26.6508 0.0 0.0 0.0 0.0 0.0 
